<?xml version="1.0"?>
<svg xmlns="http://www.w3.org/2000/svg" viewBox="0 0 1200 800" fill="none" stroke="#3C4990" stroke-width="0.6" aria-hidden="true">
  
  <g opacity="0.55">
    <path d="M120,420 Q220,260 420,250 Q620,240 760,320 Q900,400 880,540 Q860,680 700,720 Q540,760 360,700 Q180,640 140,540 Q100,440 120,420 Z"></path>
    <path d="M160,440 Q260,300 440,290 Q620,280 740,350 Q860,420 840,540 Q820,660 680,690 Q540,720 380,670 Q220,620 180,540 Q140,460 160,440 Z"></path>
    <path d="M200,460 Q290,330 460,320 Q620,310 720,380 Q820,450 800,540 Q780,640 660,660 Q540,680 400,640 Q260,600 220,540 Q180,480 200,460 Z"></path>
    <path d="M240,480 Q320,360 480,350 Q620,340 700,400 Q780,460 760,540 Q740,620 640,635 Q540,650 420,615 Q300,580 260,540 Q220,500 240,480 Z"></path>
    <path d="M280,500 Q350,390 500,380 Q620,370 680,420 Q740,470 720,540 Q700,610 620,620 Q540,630 440,595 Q340,560 300,540 Q260,520 280,500 Z"></path>
    <path d="M320,520 Q380,420 520,410 Q620,400 660,440 Q700,480 680,540 Q660,600 600,605 Q540,610 460,580 Q380,550 340,540 Q300,530 320,520 Z"></path>
    <path d="M360,540 Q410,460 540,450 Q620,440 640,470 Q660,500 640,540 Q620,580 580,582 Q540,585 480,565 Q420,545 380,540 Q340,540 360,540 Z"></path>

    
    <path d="M820,120 Q920,80 1020,140 Q1120,200 1100,300 Q1080,400 980,420 Q880,440 800,380 Q720,320 740,220 Q760,120 820,120 Z"></path>
    <path d="M850,150 Q930,120 1000,170 Q1080,220 1060,290 Q1040,360 970,380 Q900,400 840,360 Q780,320 800,250 Q820,180 850,150 Z"></path>
    <path d="M880,180 Q940,160 990,200 Q1040,240 1020,290 Q1000,340 950,355 Q900,370 860,340 Q820,310 840,260 Q860,210 880,180 Z"></path>
    <path d="M910,210 Q950,200 980,230 Q1010,260 990,290 Q970,320 940,325 Q910,330 890,310 Q870,290 880,270 Q890,240 910,210 Z"></path>

    
    <path d="M40,640 Q120,600 200,660 Q280,720 220,760 Q160,800 80,770 Q0,740 40,640 Z"></path>
    <path d="M70,660 Q130,630 190,680 Q250,730 200,750 Q150,770 90,750 Q30,730 70,660 Z"></path>
    <path d="M100,680 Q140,660 180,700 Q220,740 180,750 Q140,760 110,745 Q80,730 100,680 Z"></path>
  </g>
</svg>
